<svg width="8" height="8" fill="none" version="1.1" viewBox="0 0 8 8" xmlns="http://www.w3.org/2000/svg">
	<path d="m0.197 4.47c1.11 1.11 2.22 2.22 3.33 3.33 0.174 0.168 0.441 0.235 0.672 0.16 0.117-0.0357 0.223-0.102 0.306-0.192 1.1-1.1 2.2-2.21 3.31-3.31 0.165-0.166 0.23-0.422 0.166-0.647-0.0603-0.225-0.248-0.411-0.474-0.468-0.223-0.061-0.474 0.00523-0.638 0.168-0.733 0.735-1.47 1.47-2.2 2.21-3.42e-5 -1.69 6.85e-5 -3.38-5.14e-5 -5.07-7.95e-4 -0.233-0.135-0.459-0.338-0.572-0.201-0.116-0.463-0.115-0.663 0.00405-0.202 0.115-0.333 0.343-0.331 0.576v5.06c-0.735-0.737-1.47-1.48-2.2-2.21-0.165-0.162-0.418-0.225-0.64-0.161-0.245 0.0659-0.441 0.282-0.482 0.532-0.0382 0.212 0.0337 0.438 0.187 0.588z"/>
</svg>
