<svg width="13.6mm" height="8.25mm" version="1.1" viewBox="0 0 13.6 8.25" xmlns="http://www.w3.org/2000/svg">
	<path d="m1.42 3.1e-4c-0.33-8.8e-4 -0.675 0.0765-0.937 0.287-0.181 0.143-0.309 0.352-0.346 0.58-0.0381 0.229-0.0136 0.484 0.13 0.674 0.154 0.201 0.388 0.323 0.627 0.393 0.344 0.111 0.705 0.151 1.05 0.256 0.128 0.0351 0.257 0.0998 0.329 0.215 0.0612 0.113 0.0617 0.25 0.04 0.374-0.0279 0.152-0.133 0.28-0.263 0.359-0.232 0.151-0.522 0.175-0.792 0.147-0.218-0.0225-0.437-0.103-0.593-0.262-0.151-0.147-0.222-0.36-0.227-0.568 0.0034-0.054-0.0054-0.115-0.0539-0.148-0.0512-0.0394-0.118-0.0227-0.178-0.0263-0.0549 2e-3 -0.117-0.01-0.162 0.0302-0.0498 0.0376-0.0525 0.104-0.0471 0.161 0.0097 0.313 0.123 0.63 0.349 0.851 0.257 0.258 0.622 0.384 0.98 0.401 0.326 0.0174 0.665-0.0378 0.949-0.205 0.23-0.137 0.412-0.364 0.466-0.629 0.0408-0.203 0.0349-0.42-0.0414-0.614-0.0757-0.184-0.231-0.328-0.406-0.418-0.16-0.0765-0.334-0.118-0.506-0.162-0.299-0.071-0.605-0.12-0.894-0.226-0.108-0.0457-0.22-0.108-0.283-0.211-0.0644-0.115-0.0596-0.257-0.0293-0.382 0.0443-0.17 0.194-0.289 0.349-0.356 0.23-0.0945 0.489-0.116 0.732-0.0652 0.226 0.0492 0.441 0.18 0.559 0.383 0.0751 0.124 0.105 0.27 0.104 0.414 5e-3 0.0735 0.0789 0.128 0.151 0.119 0.0612-1e-3 0.123 3e-3 0.184-3e-3 0.0688-0.0124 0.115-0.0839 0.105-0.152-1e-3 -0.276-0.1-0.55-0.282-0.759-0.184-0.215-0.443-0.356-0.716-0.422-0.114-0.0268-0.232-0.0392-0.349-0.0392zm7.02 5e-3c-0.0628-2e-3 -0.113 0.0464-0.132 0.103-0.518 1.12-1.04 2.24-1.55 3.37-0.0343 0.0793 0.0291 0.178 0.115 0.18 1.04 7e-4 2.09 1e-4 3.13 3e-4 0.0926 4e-3 0.167-0.11 0.119-0.191-0.522-1.13-1.04-2.26-1.57-3.39-0.0224-0.0416-0.0683-0.0689-0.116-0.0684zm-5.1 0.0713c-0.0864-3e-3 -0.156 0.0916-0.127 0.173l0.889 3.31c0.0159 0.0676 0.0869 0.106 0.153 0.0982 0.0642-2e-3 0.129 4e-3 0.193-4e-3 0.0593-0.0129 0.0939-0.0685 0.104-0.125 0.12-0.446 0.239-0.891 0.359-1.34 0.124 0.459 0.246 0.919 0.371 1.38 0.0203 0.0622 0.0875 0.0945 0.15 0.0876 0.0644-2e-3 0.129 4e-3 0.193-4e-3 0.0592-0.0129 0.0934-0.0687 0.103-0.125 0.296-1.1 0.592-2.2 0.887-3.3 0.0103-0.0813-0.0676-0.157-0.149-0.147-0.653 1.6e-4 -1.31-3e-4 -1.96 2.3e-4 -0.0847 2e-3 -0.147 0.0969-0.117 0.176 0.0977 0.363 0.195 0.726 0.293 1.09-0.121 0.448-0.242 0.896-0.363 1.34-0.224-0.837-0.449-1.67-0.673-2.51-0.0159-0.0676-0.0869-0.106-0.153-0.0982h-0.155zm7.52 0c-0.0772-2e-3 -0.142 0.0724-0.132 0.148 1.2e-4 1.1-2.3e-4 2.2 1.8e-4 3.31 2e-3 0.0761 0.077 0.135 0.151 0.126 0.0613-1e-3 0.123 3e-3 0.184-3e-3 0.0677-0.0122 0.114-0.0816 0.106-0.149v-0.854c0.361-5.2e-4 0.722 1e-3 1.08-8.4e-4 0.275-6e-3 0.554-0.0814 0.777-0.246 0.241-0.174 0.416-0.436 0.491-0.723 0.0866-0.351 0.0327-0.743-0.178-1.04-0.221-0.322-0.597-0.516-0.981-0.556-0.155-0.0144-0.31-7e-3 -0.466-9e-3h-1.03zm2.13 0.833c0.184 0.28 0.174 0.67-0.0212 0.942-0.131 0.189-0.341 0.319-0.569 0.346-0.155 0.0209-0.311 0.0107-0.466 0.0132h-0.761v-1.69c0.359 5.1e-4 0.718-1e-3 1.08 8e-4 0.217 4e-3 0.441 0.0693 0.601 0.221 0.0541 0.0501 0.101 0.107 0.141 0.169zm-8.07-0.392h1.16c-0.194 0.723-0.387 1.45-0.581 2.17-0.195-0.723-0.39-1.44-0.584-2.17zm3.52 0.356 1.08 2.34h-2.16l1.08-2.34zm0.155 3.65c-0.33-1e-3 -0.674 0.0774-0.937 0.287-0.192 0.15-0.321 0.376-0.352 0.617-0.0313 0.228 4e-3 0.478 0.152 0.662 0.158 0.19 0.387 0.303 0.62 0.371 0.345 0.11 0.707 0.15 1.05 0.257 0.126 0.0355 0.253 0.103 0.322 0.219 0.0579 0.115 0.0579 0.251 0.0343 0.375-0.0297 0.149-0.135 0.273-0.261 0.352-0.233 0.151-0.523 0.175-0.792 0.147-0.22-0.0233-0.442-0.106-0.598-0.268-0.156-0.155-0.223-0.38-0.222-0.596 7e-3 -0.0787-0.0668-0.149-0.145-0.141-0.0633 1e-3 -0.127-3e-3 -0.19 3e-3 -0.0694 0.0125-0.115 0.0848-0.105 0.153 3e-3 0.321 0.113 0.649 0.342 0.878 0.256 0.261 0.621 0.39 0.981 0.408 0.331 0.0187 0.676-0.0375 0.964-0.21 0.23-0.139 0.408-0.367 0.459-0.633 0.0387-0.203 0.0318-0.42-0.047-0.612-0.0748-0.176-0.223-0.313-0.389-0.402-0.161-0.0803-0.337-0.123-0.511-0.167-0.301-0.0727-0.611-0.12-0.903-0.227-0.108-0.0459-0.219-0.108-0.283-0.211-0.0647-0.116-0.0596-0.258-0.0289-0.383 0.046-0.174 0.201-0.294 0.361-0.36 0.218-0.0862 0.46-0.108 0.69-0.0663 0.221 0.0438 0.437 0.159 0.564 0.35 0.0922 0.132 0.131 0.294 0.129 0.454 6e-3 0.0735 0.0789 0.128 0.151 0.119 0.0612-1e-3 0.123 3e-3 0.184-3e-3 0.0688-0.0124 0.115-0.0839 0.105-0.152-1e-3 -0.279-0.103-0.557-0.289-0.766-0.174-0.2-0.415-0.334-0.669-0.404-0.127-0.0338-0.258-0.0495-0.389-0.0493zm-7.06 5e-3c-0.371-4e-3 -0.738 0.144-1.01 0.4-0.27 0.255-0.441 0.613-0.458 0.984-0.0047 0.19-0.0012 0.381-0.0023 0.572 0.0019 0.151-0.0055 0.303 0.0082 0.454 0.0432 0.444 0.308 0.855 0.687 1.09 0.263 0.168 0.581 0.243 0.891 0.221 0.397-0.0202 0.792-0.194 1.05-0.502 0.193-0.227 0.304-0.525 0.293-0.824-9e-3 -0.0707-0.0804-0.121-0.15-0.112-0.0596 1e-3 -0.12-3e-3 -0.179 3e-3 -0.0692 0.012-0.114 0.0827-0.107 0.15-7e-3 0.271-0.162 0.529-0.39 0.674-0.235 0.151-0.526 0.2-0.8 0.16-0.427-0.0673-0.794-0.426-0.857-0.855-0.0197-0.132-0.0097-0.266-0.0122-0.399 7.05e-4 -0.198-0.0015-0.396 0.0012-0.595 0.0133-0.361 0.24-0.699 0.56-0.864 0.222-0.12 0.487-0.138 0.732-0.0885 0.271 0.0545 0.528 0.217 0.66 0.464 0.0683 0.122 0.0962 0.262 0.099 0.401 0.01 0.0698 0.0808 0.119 0.15 0.11 0.0597-1e-3 0.12 3e-3 0.179-3e-3 0.069-0.0124 0.115-0.0842 0.105-0.152-2e-3 -0.266-0.0973-0.528-0.262-0.737-0.176-0.229-0.431-0.387-0.702-0.476-0.158-0.0507-0.325-0.0738-0.491-0.0737zm3.5 0c-0.0628-2e-3 -0.113 0.0466-0.132 0.103-0.518 1.12-1.04 2.25-1.55 3.37-0.0354 0.0819 0.034 0.183 0.123 0.18 1.04-1.8e-4 2.09 3.6e-4 3.13-2.7e-4 0.0861-2e-3 0.149-0.1 0.115-0.18-0.521-1.13-1.04-2.26-1.57-3.39-0.0206-0.0461-0.0693-0.0776-0.12-0.077zm5.77 0.0713c-0.0772-2e-3 -0.142 0.0724-0.132 0.148 1.1e-4 1.1-2.3e-4 2.2 1.7e-4 3.31 2e-3 0.0747 0.0747 0.134 0.148 0.125 0.0623-1e-3 0.125 3e-3 0.187-3e-3 0.0677-0.0122 0.114-0.0816 0.106-0.149v-2.04c0.354 0.0191 0.701 0.136 0.997 0.332 0.391 0.251 0.688 0.642 0.836 1.08 0.0718 0.213 0.103 0.439 0.103 0.664 5e-3 0.0735 0.0789 0.128 0.151 0.119 0.0612-1e-3 0.123 3e-3 0.184-3e-3 0.0677-0.0122 0.114-0.0816 0.106-0.149-1.2e-4 -1.1 2.3e-4 -2.2-1.7e-4 -3.3-2e-3 -0.0746-0.0747-0.134-0.148-0.125-0.0623 1e-3 -0.125-3e-3 -0.187 3e-3 -0.0677 0.0122-0.114 0.0816-0.106 0.149v1.88c-0.12-0.175-0.264-0.333-0.418-0.478-0.251-0.22-0.551-0.382-0.867-0.49-0.21-0.0694-0.429-0.108-0.65-0.119-4.6e-4 -0.275 9e-4 -0.551-6.9e-4 -0.826-5e-3 -0.0735-0.0789-0.128-0.151-0.119h-0.157zm-5.77 0.796 1.08 2.34h-2.16l1.08-2.34z" fill="#70738f" stroke-width=".265"/>
</svg>
