<svg id="token-dist" width="500" height="500" version="1.1" viewBox="0 0 500 500" xmlns="http://www.w3.org/2000/svg">
	<path d="m426 250a176 176 0 0 1-176 176 176 176 0 0 1-54.4-8.69l-10.4 32.1a210 210 0 0 0 64.8 10.4 210 210 0 0 0 210-210zm73.6 14.1a250 250 0 0 1-0.0672 1.16 250 250 0 0 0 0.0672-1.16zm-1.31 15.2a250 250 0 0 1-0.0235 0.183 250 250 0 0 0 0.0235-0.183zm-2.08 14a250 250 0 0 1-0.189 1.08 250 250 0 0 0 0.189-1.08zm-3.05 14.8a250 250 0 0 1-0.15 0.607 250 250 0 0 0 0.15-0.607zm-3.74 13.8a250 250 0 0 1-0.313 1.04 250 250 0 0 0 0.313-1.04zm-4.75 14.2a250 250 0 0 1-0.297 0.783 250 250 0 0 0 0.297-0.783zm-5.38 13.4a250 250 0 0 1-0.403 0.933 250 250 0 0 0 0.403-0.933zm-6.37 13.5a250 250 0 0 1-0.393 0.762 250 250 0 0 0 0.393-0.762zm-6.99 12.8a250 250 0 0 1-0.385 0.667 250 250 0 0 0 0.385-0.667zm-7.82 12.5a250 250 0 0 1-0.566 0.84 250 250 0 0 0 0.566-0.84zm-8.55 12.1a250 250 0 0 1-0.354 0.478 250 250 0 0 0 0.354-0.478zm-9.16 11.4a250 250 0 0 1-0.688 0.801 250 250 0 0 0 0.688-0.801zm-10 11.1a250 250 0 0 1-0.248 0.261 250 250 0 0 0 0.248-0.261zm-10.3 10.1a250 250 0 0 1-0.773 0.711 250 250 0 0 0 0.773-0.711zm-11.4 9.95a250 250 0 0 1-0.134 0.114 250 250 0 0 0 0.134-0.114zm-11.3 8.74a250 250 0 0 1-0.91 0.659 250 250 0 0 0 0.463-0.315 250 250 0 0 0 0.447-0.344zm-24.7 15.9a250 250 0 0 1-0.982 0.551 250 250 0 0 0 0.982-0.551zm-13.5 7.06a250 250 0 0 1-0.336 0.158 250 250 0 0 0 0.336-0.158zm-13 5.85a250 250 0 0 1-0.961 0.403 250 250 0 0 0 0.961-0.403zm-14.1 5.41a250 250 0 0 1-0.455 0.155 250 250 0 0 0 0.455-0.155zm-159 1.5-0.04 0.129a250 250 0 0 0 9.57 2.8 250 250 0 0 1-9.53-2.93zm146 2.81a250 250 0 0 1-0.923 0.264 250 250 0 0 0 0.923-0.264zm-132 1.19a250 250 0 0 0 16.3 3.73 250 250 0 0 1-16.3-3.73zm118 2.47a250 250 0 0 1-0.848 0.181 250 250 0 0 0 0.848-0.181zm-97.4 1.98a250 250 0 0 0 12.4 1.89 250 250 0 0 1-12.4-1.89zm83 0.742a250 250 0 0 1-0.773 0.129 250 250 0 0 0 0.773-0.129zm-64.8 1.79a250 250 0 0 0 11.2 0.884 250 250 0 0 1-11.2-0.884zm50.6 0.0594a250 250 0 0 1-16.7 1.14 250 250 0 0 0 16.7-1.14zm-33.5 1.11a250 250 0 0 0 12.6 0.0646 250 250 0 0 1-12.6-0.0646z" fill="#6a60a9"/>
	<path d="m47.8 103a250 250 0 0 0-2.66 3.9 250 250 0 0 1 2.8-3.81zm-6.02 8.81a250 250 0 0 0-6.27 9.99 250 250 0 0 1 6.27-9.99zm-8.91 14.4a250 250 0 0 0-7.85 14.8 250 250 0 0 1 7.85-14.8zm47.6 0.548a210 210 0 0 0-40.3 123 210 210 0 0 0 145 200l10.4-32.1a176 176 0 0 1-122-167 176 176 0 0 1 33.7-103zm-56 15.4a250 250 0 0 0-6.26 14.3 250 250 0 0 1 6.26-14.3zm-8.21 19.4a250 250 0 0 0-3.82 10.8 250 250 0 0 1 3.82-10.8zm-5.64 16.6a250 250 0 0 0-3.06 11.2 250 250 0 0 1 3.06-11.2zm-4.35 16.4a250 250 0 0 0-3.16 16.1 250 250 0 0 1 3.16-16.1zm-3.27 16.8a250 250 0 0 0-1.97 16.3 250 250 0 0 1 1.97-16.3zm-2.34 21.6a250 250 0 0 0-0.545 11.6 250 250 0 0 1 0.545-11.6zm-0.605 17.6a250 250 0 0 0 0.303 11.5 250 250 0 0 1-0.303-11.5zm0.571 17a250 250 0 0 0 1.51 15.2 250 250 0 0 1-1.51-15.2zm1.68 16.7a250 250 0 0 0 2.87 16.4 250 250 0 0 1-2.87-16.4zm4.05 21.6a250 250 0 0 0 2.84 11.3 250 250 0 0 1-2.84-11.3zm4.53 17.1a250 250 0 0 0 1.31 4.48 250 250 0 0 0 2.25 6.28 250 250 0 0 1-3.56-10.8zm5.47 16.1a250 250 0 0 0 5.53 13.3 250 250 0 0 1-5.53-13.3zm6.43 15.5a250 250 0 0 0 7.51 14.9 250 250 0 0 1-7.51-14.9zm10 19.3a250 250 0 0 0 6.1 10.2 250 250 0 0 1-6.1-10.2zm9.38 15.2a250 250 0 0 0 6.53 9.29 250 250 0 0 1-6.53-9.29zm9.91 13.8a250 250 0 0 0 8.76 10.7 250 250 0 0 1-8.76-10.7zm10.7 13a250 250 0 0 0 11.5 12.1 250 250 0 0 1-11.5-12.1zm15.1 15.5a250 250 0 0 0 8.85 8.05 250 250 0 0 1-8.85-8.05zm13.4 11.8a250 250 0 0 0 8.9 6.98 250 250 0 0 1-8.9-6.98zm13.6 10.4a250 250 0 0 0 11 7.36 250 250 0 0 1-11-7.36zm14 9.32a250 250 0 0 0 14.5 8.27 250 250 0 0 1-14.5-8.27zm18.7 10.3a250 250 0 0 0 11 5.26 250 250 0 0 1-11-5.26zm16.5 7.59a250 250 0 0 0 10.5 4.09 250 250 0 0 1-10.5-4.09zm16 6.05a250 250 0 0 0 2.83 1.01l0.04-0.129a250 250 0 0 1-2.87-0.884z" fill="#766db0"/>
	<path d="m173 12.2a250 250 0 0 0-16.3 5.98 250 250 0 0 1 16.3-5.98zm-17.6 6.46a250 250 0 0 0-15.1 6.82 250 250 0 0 1 15.1-6.82zm-17.1 7.76a250 250 0 0 0-14.1 7.67 250 250 0 0 1 14.1-7.67zm-16.4 8.98a250 250 0 0 0-13.4 8.59 250 250 0 0 1 13.4-8.59zm-15.6 10.1a250 250 0 0 0-12.8 9.6 250 250 0 0 1 12.8-9.6zm79 4.98a210 210 0 0 0-105 76.3l27.3 19.8a176 176 0 0 1 88-64zm-93.6 6.09a250 250 0 0 0-12.3 10.7 250 250 0 0 1 12.3-10.7zm-13.7 12a250 250 0 0 0-11.9 12 250 250 0 0 1 11.9-12zm-12.4 12.6a250 250 0 0 0-11.1 13 250 250 0 0 1 11.1-13zm-11.6 13.6a250 250 0 0 0-6.19 8.15l0.132 0.0956a250 250 0 0 1 6.06-8.25z" fill="#837ab8"/>
	<path id="t-team" d="m253 0.023a250 250 0 0 0-80.7 12.2l22.9 70.4a176 176 0 0 1 54.4-8.69 176 176 0 0 1 142 72.6l59.9-43.5a250 250 0 0 0-199-103z" fill="#d4adcf"/>
	<path id="t-virto" d="m452 103-59.9 43.5a176 176 0 0 1 25 49.1l70.4-22.9a250 250 0 0 0-35.5-69.7z" fill="#a6bdd3"/>
	<path id="t-boot" d="m488 173-70.4 22.9a176 176 0 0 1 8.63 54.4h74a250 250 0 0 0-12.2-77.3z" fill="#87ff65"/>
	<path id="t-comm" d="m173 12.2a250 250 0 0 0-167 290 250 250 0 0 0 271 197 250 250 0 0 0 224-249h-40.1a210 210 0 0 1-210 210 210 210 0 0 1-210-210 210 210 0 0 1 145-199z" fill="#595096"/>
</svg>
